<?xml version="1.0" encoding="utf-8"?>
<!-- Generator: Adobe Illustrator 16.0.0, SVG Export Plug-In . SVG Version: 6.00 Build 0)  -->
<!DOCTYPE svg PUBLIC "-//W3C//DTD SVG 1.1//EN" "http://www.w3.org/Graphics/SVG/1.1/DTD/svg11.dtd">
<svg version="1.1" xmlns="http://www.w3.org/2000/svg" xmlns:xlink="http://www.w3.org/1999/xlink" x="0px" y="0px" width="32px"
	 height="32px" viewBox="0 0 32 32" enable-background="new 0 0 32 32" xml:space="preserve">
<symbol  id="dude-transit" viewBox="0 -25.1 21.25 25.118">
	<path fill-rule="evenodd" clip-rule="evenodd" fill="#FFFFFF" d="M15.5-4.2l0.75-1.05l1-3.1l3.9-2.65v-0.05
		c0.067-0.1,0.1-0.233,0.1-0.4c0-0.2-0.05-0.383-0.15-0.55c-0.167-0.233-0.383-0.35-0.65-0.35l-4.3,1.8l-1.2,1.65l-1.5-3.95
		l2.25-5.05l-3.25-6.9c-0.267-0.2-0.633-0.3-1.1-0.3c-0.3,0-0.55,0.15-0.75,0.45c-0.1,0.133-0.15,0.25-0.15,0.35
		c0,0.067,0.017,0.15,0.05,0.25c0.033,0.1,0.067,0.184,0.1,0.25l2.55,5.6L10.7-14l-3.05-4.9L0.8-18.7
		c-0.367,0.033-0.6,0.184-0.7,0.45c-0.067,0.3-0.1,0.467-0.1,0.5c0,0.5,0.2,0.767,0.6,0.8l5.7,0.15l2.15,5.4l3.1,5.65L9.4-5.6
		c-1.367-2-2.1-3.033-2.2-3.1C7.1-8.8,6.95-8.85,6.75-8.85C6.35-8.85,6.1-8.667,6-8.3C5.9-8,5.9-7.8,6-7.7H5.95l2.5,4.4l3.7,0.3
		L14-3.5L15.5-4.2z M14.55-2.9c-0.333,0.4-0.45,0.85-0.35,1.35c0.033,0.5,0.25,0.9,0.65,1.2S15.7,0.066,16.2,0
		c0.5-0.067,0.9-0.3,1.2-0.7c0.333-0.4,0.467-0.85,0.4-1.35c-0.066-0.5-0.3-0.9-0.7-1.2c-0.4-0.333-0.85-0.45-1.35-0.35
		C15.25-3.533,14.85-3.3,14.55-2.9z"/>
</symbol>
<g id="Layer_1">
</g>
<g id="Layer_2">
	<path fill="#FFFFFF" d="M19.939,2.104c-2.592-0.738-5.217-0.703-7.647-0.059c-0.011,0.003-0.021,0.007-0.032,0.01
		c-0.438,0.117-0.867,0.254-1.289,0.411c-0.033,0.013-0.064,0.021-0.099,0.031c-0.056,0.022-0.108,0.047-0.165,0.067
		c-0.251,0.102-0.502,0.201-0.746,0.314C9.837,2.938,9.721,3,9.6,3.061c-0.506,0.25-0.996,0.524-1.468,0.834
		c-0.019,0.01-0.036,0.021-0.055,0.03C5.566,5.57,3.629,8.023,2.461,10.986c-0.885,2.246-0.873,4.306-0.873,4.306
		c-0.181,4.422,1.723,8.821,5.196,11.924l0.04-0.052c3.85,3.146,9.207,4.236,14.197,2.361c1.135-0.426,2.172-0.992,3.125-1.652
		c0.041-0.025,0.078-0.055,0.117-0.081c0.271-0.19,0.534-0.385,0.788-0.591c0.251-0.202,0.497-0.412,0.733-0.631
		c0.08-0.074,0.154-0.15,0.232-0.228c1.77-1.7,3.129-3.87,3.851-6.403C32.053,12.273,27.607,4.287,19.939,2.104z M22.154,17.327
		h5.154c-0.221,1.868-0.89,3.655-1.951,5.194c-0.084,0.117-0.168,0.232-0.256,0.347c-0.158,0.211-0.313,0.421-0.486,0.621
		c-0.281,0.321-0.576,0.632-0.891,0.918c-0.063,0.059-0.134,0.112-0.199,0.17c-0.338,0.295-0.688,0.575-1.057,0.828
		c-0.015,0.011-0.027,0.021-0.044,0.03c-1.276,0.865-2.722,1.472-4.249,1.771l0.008,0.027c-0.287,0.058-0.572,0.084-0.856,0.117
		v-5.105c0-0.732-0.595-1.327-1.327-1.327s-1.327,0.595-1.327,1.327v5.117c-2.34-0.271-4.552-1.242-6.315-2.807
		c-1.92-1.858-3.271-4.474-3.653-7.229H9.76c0.733,0,1.327-0.595,1.327-1.327s-0.594-1.327-1.327-1.327H4.645
		c0.047-0.478,0.123-0.952,0.236-1.422c0.986-3.433,3.496-6.596,6.977-7.929c0.035-0.014,0.072-0.027,0.106-0.042
		c0.896-0.332,1.804-0.53,2.709-0.634v5.246c0,0.733,0.595,1.327,1.327,1.327s1.327-0.594,1.327-1.327V4.655
		c4.098,0.501,7.784,3.198,9.337,7.331c0.332,0.886,0.543,1.787,0.648,2.687h-5.158c-0.732,0-1.326,0.595-1.326,1.327
		S21.422,17.327,22.154,17.327z"/>
</g>
</svg>
