<?xml version="1.0" encoding="utf-8"?>
<!-- Generator: Adobe Illustrator 16.0.0, SVG Export Plug-In . SVG Version: 6.00 Build 0)  -->
<!DOCTYPE svg PUBLIC "-//W3C//DTD SVG 1.1//EN" "http://www.w3.org/Graphics/SVG/1.1/DTD/svg11.dtd">
<svg version="1.1" xmlns="http://www.w3.org/2000/svg" xmlns:xlink="http://www.w3.org/1999/xlink" x="0px" y="0px" width="32px"
	 height="32px" viewBox="0 0 32 32" enable-background="new 0 0 32 32" xml:space="preserve">
<symbol  id="dude-transit" viewBox="0 -25.1 21.25 25.118">
	<path fill-rule="evenodd" clip-rule="evenodd" fill="#FFFFFF" d="M15.5-4.2l0.75-1.05l1-3.1l3.9-2.65v-0.05
		c0.067-0.1,0.1-0.233,0.1-0.4c0-0.2-0.05-0.383-0.15-0.55c-0.167-0.233-0.383-0.35-0.65-0.35l-4.3,1.8l-1.2,1.65l-1.5-3.95
		l2.25-5.05l-3.25-6.9c-0.267-0.2-0.633-0.3-1.1-0.3c-0.3,0-0.55,0.15-0.75,0.45c-0.1,0.133-0.15,0.25-0.15,0.35
		c0,0.067,0.017,0.15,0.05,0.25c0.033,0.1,0.067,0.184,0.1,0.25l2.55,5.6L10.7-14l-3.05-4.9L0.8-18.7
		c-0.367,0.033-0.6,0.184-0.7,0.45c-0.067,0.3-0.1,0.467-0.1,0.5c0,0.5,0.2,0.767,0.6,0.8l5.7,0.15l2.15,5.4l3.1,5.65L9.4-5.6
		c-1.367-2-2.1-3.033-2.2-3.1C7.1-8.8,6.95-8.85,6.75-8.85C6.35-8.85,6.1-8.667,6-8.3C5.9-8,5.9-7.8,6-7.7H5.95l2.5,4.4l3.7,0.3
		L14-3.5L15.5-4.2z M14.55-2.9c-0.333,0.4-0.45,0.85-0.35,1.35c0.033,0.5,0.25,0.9,0.65,1.2S15.7,0.066,16.2,0
		c0.5-0.067,0.9-0.3,1.2-0.7c0.333-0.4,0.467-0.85,0.4-1.35c-0.066-0.5-0.3-0.9-0.7-1.2c-0.4-0.333-0.85-0.45-1.35-0.35
		C15.25-3.533,14.85-3.3,14.55-2.9z"/>
</symbol>
<g id="Layer_1">
</g>
<g id="Layer_2">
	<polygon opacity="0.4" fill="#FFFFFF" points="24.17,13.083 24.17,8.385 19.707,9.452 17.694,6.609 14.86,8.432 10.547,6.293 
		9.18,10.478 4.785,11.346 6.6,14.216 2.258,10.557 8.416,9.609 8.811,3.135 14.86,6.846 18.737,2.819 20.173,8.346 26.102,5.583 
		25.541,12.426 30.05,14.044 26.339,16.399 28.077,14.216 	"/>
	<g>
		<g>
			<path fill="#FFFFFF" d="M22.953,30.499c-2.883,0-5.766,0-8.646,0c-0.016-0.269,0.052-0.532,0.032-0.799
				c-0.015-0.201,0.021-0.399,0.039-0.597c0.016-0.192,0.008-0.396,0.106-0.579c0.034-0.062,0.047-0.151,0.034-0.222
				c-0.054-0.313-0.105-0.628-0.187-0.935c-0.089-0.343-0.188-0.69-0.369-0.999c-0.138-0.232-0.346-0.413-0.535-0.6
				c-0.951-0.951-1.875-1.93-2.878-2.828c-0.276-0.247-0.535-0.511-0.802-0.768c-0.046-0.043-0.093-0.081-0.142-0.119
				c-0.122-0.093-0.223-0.196-0.199-0.382c0.029-0.231,0.063-0.462,0.111-0.689c0.092-0.427,0.177-0.851,0.177-1.293
				c0.001-0.917-0.043-1.835,0.024-2.751c0.018-0.228,0.052-0.453,0.1-0.676c0.064-0.295,0.222-0.496,0.516-0.632
				c0.63-0.293,1.278-0.545,1.909-0.837c0.282-0.131,0.574-0.186,0.888-0.165c0.239,0.016,0.483,0.002,0.761,0.002
				c-0.257-0.096-0.502-0.102-0.747-0.207c0.482-0.209,0.943-0.387,1.384-0.607c0.273-0.136,0.516-0.189,0.771,0.01
				c0.007,0.006,0.015,0.012,0.026,0.019c0.004,0.114,0.055,0.227,0.033,0.346c-0.051,0.308-0.029,0.622-0.093,0.926
				c-0.038,0.181-0.071,0.364-0.138,0.54c-0.11,0.296-0.39,0.42-0.601,0.613c-0.248,0.225-0.517,0.427-0.777,0.637
				c-0.212,0.173-0.431,0.338-0.634,0.52c-0.227,0.201-0.476,0.369-0.685,0.583c0.007,0.109,0.054,0.206,0.076,0.308
				c0.085,0.362,0.169,0.724,0.254,1.088c-0.047,0.045-0.033,0.103-0.036,0.158c-0.005,0.044,0.004,0.085-0.026,0.13
				c-0.177,0.273-0.354,0.546-0.513,0.829c-0.053,0.092-0.158,0.172-0.127,0.344c0.578-0.471,1.132-0.926,1.681-1.375
				c0.168,0.084,0.316,0.17,0.473,0.236c0.603,0.256,1.129,0.627,1.577,1.097c0.134,0.139,0.276,0.186,0.433,0.184
				c0.376-0.005,0.75,0.041,1.125,0.038c0.224-0.001,0.451-0.02,0.671,0.042c0.008,0.078,0.048,0.143,0.087,0.206
				c0.201,0.34,0.408,0.676,0.591,1.026c0.049,0.093,0.058,0.191,0.035,0.283c-0.045,0.202-0.057,0.409-0.083,0.614
				c-0.031,0.235-0.063,0.471-0.089,0.706c-0.014,0.132-0.045,0.269-0.036,0.397c0.092,0.033,0.104-0.035,0.118-0.075
				c0.157-0.431,0.311-0.863,0.464-1.295c0.079-0.23,0.188-0.46,0.214-0.698c0.044-0.452,0.036-0.91,0.068-1.364
				c0.016-0.234-0.02-0.471,0.046-0.706c0.217-0.089,0.442-0.082,0.672-0.051c0.193,0.026,0.381,0.042,0.543-0.11
				c0.312-0.295,0.572-0.629,0.805-0.987c0.292,0.073,0.582,0.146,0.868,0.219c0.024-0.074-0.003-0.104-0.035-0.132
				c-0.181-0.155-0.361-0.312-0.546-0.462c-0.054-0.042-0.093-0.119-0.18-0.096c0.045-0.118,0.063-0.241,0.094-0.362
				c0.037-0.155,0.034-0.32,0.092-0.472c0.07,0.002,0.14-0.006,0.206-0.032c0.414-0.16,0.825-0.315,1.236-0.476
				c0.041-0.016,0.107-0.033,0.059-0.114c-0.062,0-0.129-0.007-0.192,0.001c-0.403,0.052-0.809,0.053-1.213,0.088
				c-0.021-0.104,0.019-0.202,0.026-0.303c0.019-0.3,0.073-0.595,0.101-0.894c0.031-0.342,0.108-0.679,0.002-1.015
				c0.025-0.023,0.042-0.006,0.06,0.002c0.016,0.009,0.038,0.01,0.058,0.012c0.392,0.039,0.703,0.216,0.942,0.526
				c0.313,0.409,0.63,0.817,0.945,1.226c0.109,0.14,0.227,0.282,0.244,0.461c0.035,0.42,0.083,0.838,0.046,1.267
				c-0.037,0.412-0.045,0.827-0.067,1.242c-0.018,0.31-0.051,0.62-0.071,0.931c-0.026,0.401-0.084,0.798-0.118,1.198
				c-0.028,0.3-0.033,0.603-0.069,0.9c-0.016,0.123-0.009,0.246-0.029,0.366c-0.05,0.281-0.053,0.565-0.088,0.848
				c-0.03,0.243-0.037,0.488-0.066,0.729c-0.046,0.362-0.098,0.723-0.153,1.083c-0.029,0.188-0.062,0.38-0.197,0.528
				c-0.092,0.102-0.162,0.219-0.234,0.334c-0.132,0.213-0.225,0.434-0.223,0.698C22.957,28.393,22.953,29.445,22.953,30.499z"/>
			<path opacity="0.8" fill="#D8D9D8" d="M22.953,30.499c0-1.054,0.005-2.106-0.004-3.16c-0.002-0.262,0.09-0.485,0.223-0.698
				c0.072-0.116,0.143-0.232,0.234-0.335c0.134-0.149,0.168-0.339,0.197-0.528c0.055-0.36,0.107-0.72,0.153-1.082
				c0.029-0.242,0.036-0.487,0.066-0.729c0.036-0.282,0.038-0.567,0.088-0.848c0.021-0.12,0.013-0.243,0.029-0.366
				c0.035-0.298,0.04-0.601,0.069-0.901c0.035-0.399,0.092-0.797,0.118-1.198c0.021-0.311,0.053-0.62,0.071-0.931
				c0.022-0.414,0.03-0.83,0.067-1.241c0.036-0.428-0.011-0.846-0.046-1.267c-0.017-0.178-0.135-0.32-0.244-0.46
				c-0.315-0.408-0.631-0.817-0.944-1.226c-0.24-0.311-0.552-0.488-0.942-0.526c-0.02-0.001-0.042-0.003-0.059-0.012
				c-0.018-0.009-0.034-0.025-0.06-0.002c0.107,0.336,0.029,0.674-0.001,1.016c-0.028,0.298-0.083,0.594-0.101,0.894
				c-0.007,0.101-0.048,0.199-0.027,0.303c-0.084,0.167-0.082,0.352-0.096,0.532c-0.058,0.152-0.054,0.315-0.092,0.471
				c-0.029,0.121-0.049,0.245-0.094,0.361c-0.02,0.12-0.088,0.201-0.188,0.266c-0.113,0.074-0.231,0.134-0.358,0.177
				c-0.275,0.093-0.545,0.208-0.844,0.213c-0.145,0.002-0.271-0.057-0.401-0.097c-0.305-0.092-0.597-0.214-0.827-0.446
				c-0.028-0.027-0.05-0.065-0.109-0.049c0.014,0.112-0.014,0.208-0.109,0.283c-0.236,0.186-0.503,0.316-0.781,0.423
				c-0.023,0.009-0.051,0.009-0.079,0.007c-0.438-0.022-0.842-0.158-1.208-0.399c-0.104-0.067-0.164-0.169-0.149-0.303
				c0.009-0.068,0.002-0.137,0.002-0.231c-0.213,0.181-0.441,0.153-0.646,0.119c-0.598-0.104-1.191-0.241-1.78-0.388
				c-0.105-0.026-0.141-0.074-0.149-0.178c-0.011-0.169-0.019-0.343-0.081-0.512c-0.031,0.009-0.054,0.009-0.066,0.021
				c-0.231,0.186-0.464,0.372-0.69,0.563c-0.049,0.041-0.107,0.08-0.118,0.155c-0.02,0.131-0.036,0.263-0.063,0.394
				c-0.056,0.273-0.076,0.553-0.149,0.825c-0.084-0.363-0.167-0.727-0.253-1.088c-0.023-0.102-0.07-0.198-0.077-0.308
				c0.209-0.213,0.46-0.382,0.685-0.583c0.203-0.182,0.423-0.348,0.636-0.52c0.26-0.212,0.528-0.413,0.775-0.637
				c0.211-0.192,0.49-0.317,0.601-0.613c0.067-0.177,0.102-0.358,0.138-0.54c0.064-0.305,0.043-0.619,0.095-0.925
				c0.02-0.119-0.031-0.231-0.035-0.346c-0.013-0.007-0.021-0.013-0.028-0.019c-0.254-0.198-0.496-0.146-0.771-0.009
				c-0.439,0.219-0.9,0.398-1.383,0.606c0.245,0.105,0.49,0.111,0.747,0.207c-0.277,0-0.521,0.013-0.761-0.003
				c-0.313-0.02-0.605,0.035-0.888,0.166c-0.631,0.292-1.279,0.544-1.909,0.838c-0.295,0.137-0.452,0.337-0.518,0.632
				c-0.047,0.222-0.081,0.447-0.099,0.675c-0.067,0.917-0.023,1.834-0.023,2.751c-0.001,0.443-0.085,0.867-0.177,1.294
				c-0.049,0.228-0.083,0.458-0.111,0.688c-0.025,0.186,0.076,0.29,0.199,0.383c0.049,0.037,0.095,0.076,0.14,0.118
				c0.269,0.256,0.526,0.521,0.804,0.769c1.003,0.896,1.925,1.876,2.876,2.826c0.189,0.188,0.397,0.368,0.534,0.601
				c0.183,0.309,0.282,0.655,0.371,1c0.081,0.306,0.132,0.62,0.187,0.933c0.013,0.071,0,0.159-0.034,0.223
				c-0.1,0.183-0.09,0.386-0.106,0.579c-0.018,0.198-0.054,0.396-0.039,0.597c0.02,0.268-0.049,0.532-0.031,0.8
				c-0.322,0-0.642,0-0.962,0c0.001-0.395-0.004-0.791,0.029-1.187c0.023-0.283,0.047-0.567,0.132-0.838
				c0.025-0.083,0.035-0.166,0.02-0.241c-0.084-0.393-0.165-0.787-0.309-1.166c-0.041-0.111-0.052-0.237-0.145-0.327
				c-0.261-0.255-0.503-0.531-0.76-0.788c-0.736-0.734-1.451-1.49-2.231-2.178c-0.34-0.299-0.653-0.628-0.979-0.942
				c-0.023-0.022-0.041-0.045-0.065-0.065c-0.263-0.22-0.536-0.431-0.62-0.791c0-0.104,0-0.207,0-0.311
				c0.023-0.007,0.029-0.024,0.029-0.046c-0.001-0.256,0.069-0.5,0.118-0.748c0.054-0.263,0.121-0.528,0.127-0.792
				c0.015-0.851,0.006-1.705,0.005-2.556c0-0.042,0.007-0.088-0.011-0.122c-0.107-0.207-0.052-0.393,0.063-0.573
				c0.017-0.025,0.04-0.044,0.041-0.08c0.01-0.279,0.08-0.549,0.155-0.816c0.104-0.364,0.281-0.677,0.644-0.831
				c0.147-0.061,0.15-0.155,0.122-0.268c-0.063-0.275-0.137-0.547-0.204-0.821c-0.045-0.189-0.102-0.381-0.057-0.573
				c0.108-0.45,0.28-0.875,0.56-1.246c0.147-0.193,0.285-0.4,0.492-0.541c0.243-0.166,0.529-0.207,0.806-0.278
				c0.285-0.073,0.576-0.112,0.866-0.149c0.196-0.026,0.411-0.031,0.574,0.093c0.112,0.086,0.221,0.188,0.324,0.291
				c0.108,0.11,0.126,0.107,0.215-0.028c0.133-0.207,0.3-0.374,0.554-0.421c0.213-0.039,0.432-0.055,0.645-0.1
				c0.127-0.026,0.26,0.003,0.38-0.058c0.165,0,0.332,0,0.496,0c0.006,0.008,0.012,0.023,0.017,0.023
				c0.272-0.001,0.468,0.16,0.639,0.341c0.293,0.316,0.544,0.665,0.745,1.047c0.03,0.06,0.057,0.124,0.146,0.105
				c0.216-0.046,0.434-0.093,0.65-0.136c0.209-0.041,0.42-0.098,0.628,0c0.152,0.072,0.281,0.175,0.413,0.281
				c0.26,0.208,0.509,0.428,0.716,0.689c0.115,0.146,0.229,0.267,0.465,0.196c0.339-0.103,0.692-0.156,1.055-0.134
				c0.124,0.007,0.227,0.048,0.313,0.132c0.031,0.028,0.058,0.06,0.09,0.083c0.309,0.21,0.587,0.451,0.809,0.751
				c0.042,0.054,0.105,0.072,0.169,0.093c0.162,0.05,0.332,0.079,0.487,0.157c0.261,0.135,0.42,0.372,0.602,0.583
				c0.312,0.367,0.595,0.757,0.896,1.134c0.196,0.249,0.345,0.513,0.38,0.841c0.01,0.104-0.022,0.224,0.051,0.32
				c0,0.568,0,1.137,0,1.704c-0.041,0.015-0.029,0.05-0.03,0.078c-0.008,0.2-0.013,0.398-0.025,0.598
				c-0.025,0.376-0.065,0.75-0.097,1.127c-0.036,0.446-0.079,0.892-0.124,1.336c-0.031,0.329-0.059,0.658-0.093,0.987
				c-0.036,0.378-0.082,0.756-0.124,1.136c-0.049,0.458-0.113,0.916-0.189,1.369c-0.072,0.431-0.17,0.849-0.501,1.173
				c-0.092,0.089-0.123,0.209-0.122,0.348c0.006,1.042,0.003,2.085,0.003,3.128C23.201,30.499,23.078,30.499,22.953,30.499z
				 M16.719,13.374c0.029,0.107-0.027,0.19-0.026,0.285c0.006,1.664-0.019,3.33,0.03,4.995c0,0.005,0,0.011,0,0.015
				c-0.002,0.057,0.019,0.088,0.07,0.121c0.182,0.112,0.378,0.191,0.579,0.256c0.25,0.081,0.501,0.137,0.749-0.001
				c0.162-0.09,0.323-0.184,0.486-0.277c0.023-0.34,0.057-0.68,0.065-1.022c0.01-0.241,0.034-0.48,0.045-0.721
				c0.007-0.167,0.001-0.338,0.023-0.504c0.054-0.405,0.06-0.814,0.085-1.22c0.016-0.26,0.058-0.521,0.036-0.783
				c-0.003-0.032,0.021-0.061,0.021-0.087c0-0.159,0.042-0.313-0.077-0.467c-0.226-0.291-0.524-0.501-0.79-0.745
				c-0.075-0.068-0.165-0.089-0.28-0.058c-0.189,0.053-0.388,0.067-0.579,0.111C17.016,13.301,16.869,13.309,16.719,13.374z
				 M19.768,14.442c-0.176,0.476-0.221,0.969-0.283,1.458c-0.026,0.206-0.046,0.414-0.073,0.62c-0.03,0.247-0.06,0.493-0.08,0.74
				c-0.021,0.285-0.047,0.57-0.075,0.853c-0.019,0.179,0.04,0.272,0.167,0.363c0.207,0.147,0.446,0.209,0.683,0.274
				c0.068,0.019,0.13,0.073,0.213,0.035c0.219-0.103,0.449-0.17,0.683-0.232c0.062-0.017,0.107-0.045,0.122-0.113
				c0.019-0.084,0.051-0.165,0.061-0.25c0.047-0.361,0.114-0.719,0.164-1.079c0.056-0.386,0.099-0.773,0.155-1.158
				c0.02-0.141,0.016-0.283,0.047-0.424c0.031-0.144,0.022-0.294-0.081-0.436c-0.22-0.302-0.505-0.527-0.804-0.74
				c-0.057-0.04-0.118-0.039-0.188-0.023C20.251,14.385,20.029,14.466,19.768,14.442z M14.165,17.94
				c0.639,0.134,1.269,0.327,1.929,0.385c0.005-0.042,0.009-0.057,0.01-0.071c0.012-0.897-0.017-1.793,0.029-2.69
				c0.025-0.508-0.044-1.017-0.03-1.526c0.011-0.356,0-0.713,0.002-1.07c0.001-0.074-0.013-0.139-0.052-0.203
				c-0.174-0.298-0.386-0.569-0.613-0.828c-0.081-0.091-0.18-0.133-0.311-0.13c-0.32,0.009-0.633,0.086-0.955,0.103
				c-0.1,0.006-0.191,0.059-0.253,0.147c-0.139,0.192-0.279,0.385-0.422,0.574c-0.024,0.033-0.035,0.065-0.027,0.099
				c0.069,0.317,0.084,0.643,0.135,0.961c0.025,0.01,0.049,0.009,0.074-0.002c0.272-0.12,0.542-0.247,0.816-0.359
				c0.119-0.048,0.228-0.125,0.369-0.129c0.296-0.007,0.521,0.144,0.745,0.301c0.109,0.078,0.172,0.177,0.191,0.324
				c0.03,0.247,0.01,0.487,0,0.732c-0.021,0.367-0.078,0.726-0.165,1.081c-0.052,0.206-0.127,0.418-0.286,0.557
				c-0.402,0.349-0.824,0.675-1.239,1.009c-0.037,0.029-0.062,0.055-0.048,0.102C14.118,17.511,14.099,17.728,14.165,17.94z
				 M13.137,13.915c-0.004-0.196-0.041-0.364-0.071-0.532c-0.047-0.252-0.074-0.51-0.187-0.745c-0.099-0.209-0.293-0.34-0.438-0.513
				c-0.087-0.105-0.191-0.116-0.302-0.095c-0.367,0.071-0.729,0.148-1.092,0.238c-0.08,0.02-0.132,0.057-0.174,0.11
				c-0.229,0.291-0.44,0.594-0.561,0.947c-0.053,0.151-0.091,0.305-0.04,0.474c0.082,0.264,0.138,0.536,0.209,0.804
				c0.034,0.133,0.046,0.275,0.117,0.404C11.439,14.605,12.301,14.281,13.137,13.915z"/>
			<path fill="#8C8C8C" d="M12.763,19.405c0.071-0.272,0.093-0.552,0.147-0.825c0.027-0.131,0.045-0.262,0.063-0.394
				c0.011-0.075,0.07-0.115,0.119-0.155c0.227-0.19,0.459-0.377,0.69-0.563c0.013-0.012,0.035-0.012,0.066-0.021
				c0.062,0.169,0.068,0.342,0.08,0.512c0.009,0.104,0.044,0.151,0.15,0.178c0.589,0.147,1.181,0.284,1.78,0.388
				c0.205,0.035,0.434,0.063,0.646-0.119c0,0.094,0.007,0.163-0.001,0.231c-0.013,0.133,0.046,0.236,0.148,0.303
				c0.367,0.241,0.77,0.377,1.21,0.399c0.024,0.001,0.055,0.002,0.078-0.007c0.277-0.107,0.545-0.237,0.78-0.423
				c0.098-0.075,0.124-0.171,0.111-0.283c0.058-0.017,0.077,0.021,0.107,0.049c0.231,0.232,0.522,0.354,0.827,0.446
				c0.133,0.04,0.257,0.1,0.402,0.097c0.299-0.004,0.568-0.12,0.844-0.213c0.127-0.043,0.245-0.103,0.357-0.177
				c0.099-0.066,0.168-0.146,0.188-0.266c0.088-0.022,0.128,0.055,0.18,0.097c0.185,0.151,0.365,0.307,0.545,0.462
				c0.033,0.028,0.062,0.059,0.036,0.132c-0.286-0.072-0.576-0.146-0.867-0.22c-0.232,0.358-0.494,0.692-0.807,0.987
				c-0.161,0.153-0.349,0.136-0.542,0.11c-0.229-0.03-0.456-0.039-0.672,0.051c-0.065,0.234-0.028,0.472-0.046,0.705
				c-0.031,0.454-0.024,0.913-0.068,1.365c-0.024,0.237-0.135,0.467-0.213,0.699c-0.152,0.433-0.306,0.864-0.464,1.294
				c-0.016,0.041-0.028,0.108-0.119,0.075c-0.008-0.128,0.023-0.264,0.036-0.396c0.026-0.235,0.059-0.47,0.089-0.705
				c0.027-0.205,0.038-0.412,0.084-0.614c0.021-0.091,0.014-0.19-0.036-0.282c-0.184-0.35-0.39-0.688-0.592-1.027
				c-0.037-0.063-0.079-0.128-0.086-0.205c-0.221-0.062-0.446-0.043-0.671-0.042c-0.376,0.002-0.749-0.042-1.125-0.037
				c-0.156,0.001-0.3-0.046-0.433-0.185c-0.448-0.469-0.975-0.84-1.577-1.096c-0.155-0.066-0.304-0.151-0.472-0.236
				c-0.55,0.45-1.105,0.904-1.682,1.376c-0.031-0.172,0.074-0.252,0.127-0.345c0.16-0.285,0.338-0.558,0.515-0.83
				c0.03-0.047,0.022-0.088,0.024-0.132C12.729,19.508,12.714,19.449,12.763,19.405z"/>
			<path fill="#8C8C8C" d="M21.744,17.732c0.015-0.18,0.013-0.364,0.097-0.532c0.404-0.035,0.81-0.036,1.213-0.088
				c0.063-0.008,0.131-0.001,0.192-0.001c0.05,0.081-0.018,0.099-0.058,0.114c-0.411,0.16-0.823,0.316-1.236,0.474
				C21.885,17.725,21.816,17.733,21.744,17.732z"/>
			<path fill="#FFFFFF" d="M16.719,13.374c0.15-0.065,0.297-0.072,0.439-0.104c0.191-0.044,0.391-0.058,0.579-0.111
				c0.115-0.032,0.206-0.01,0.281,0.059c0.265,0.244,0.563,0.454,0.789,0.745c0.119,0.154,0.078,0.309,0.076,0.466
				c0,0.027-0.024,0.056-0.021,0.088c0.021,0.263-0.018,0.523-0.034,0.783c-0.027,0.406-0.033,0.815-0.086,1.22
				c-0.023,0.167-0.018,0.337-0.024,0.505c-0.01,0.24-0.035,0.48-0.043,0.721c-0.011,0.341-0.043,0.682-0.066,1.021
				c-0.162,0.093-0.322,0.188-0.487,0.276c-0.248,0.139-0.498,0.083-0.749,0.002c-0.2-0.065-0.396-0.144-0.578-0.256
				c-0.053-0.033-0.073-0.064-0.07-0.121c0.002-0.005,0-0.01,0-0.016c-0.049-1.665-0.024-3.33-0.031-4.995
				C16.691,13.564,16.748,13.481,16.719,13.374z"/>
			<path fill="#FFFFFF" d="M19.768,14.442c0.262,0.024,0.484-0.057,0.71-0.11c0.069-0.016,0.131-0.018,0.188,0.023
				c0.298,0.213,0.584,0.438,0.803,0.74c0.104,0.141,0.112,0.291,0.081,0.435c-0.029,0.141-0.026,0.284-0.047,0.424
				c-0.054,0.385-0.1,0.772-0.153,1.158c-0.051,0.36-0.119,0.718-0.165,1.079c-0.011,0.084-0.042,0.166-0.06,0.25
				c-0.015,0.068-0.061,0.096-0.124,0.113c-0.232,0.062-0.464,0.13-0.683,0.232c-0.083,0.039-0.145-0.016-0.212-0.035
				c-0.237-0.064-0.477-0.127-0.683-0.274c-0.127-0.091-0.186-0.185-0.167-0.363c0.028-0.283,0.053-0.568,0.076-0.852
				c0.019-0.247,0.049-0.494,0.079-0.74c0.027-0.206,0.046-0.415,0.073-0.621C19.547,15.411,19.592,14.918,19.768,14.442z"/>
			<path fill="#FFFFFF" d="M14.165,17.94c-0.066-0.212-0.047-0.429-0.103-0.634c-0.013-0.047,0.012-0.073,0.048-0.102
				c0.415-0.334,0.838-0.66,1.239-1.009c0.159-0.139,0.234-0.352,0.287-0.557c0.087-0.355,0.144-0.713,0.164-1.081
				c0.012-0.245,0.03-0.485,0-0.732c-0.02-0.146-0.082-0.246-0.191-0.324c-0.224-0.157-0.45-0.309-0.746-0.301
				c-0.141,0.003-0.248,0.081-0.367,0.129c-0.276,0.112-0.545,0.238-0.817,0.359c-0.025,0.011-0.049,0.012-0.074,0.002
				c-0.052-0.318-0.065-0.644-0.136-0.961c-0.007-0.034,0.002-0.066,0.029-0.099c0.142-0.189,0.281-0.382,0.42-0.574
				c0.063-0.089,0.153-0.142,0.254-0.147c0.321-0.017,0.634-0.094,0.955-0.103c0.131-0.003,0.229,0.039,0.31,0.13
				c0.229,0.258,0.44,0.529,0.614,0.828c0.038,0.064,0.054,0.129,0.052,0.203c-0.002,0.357,0.009,0.713-0.002,1.07
				c-0.014,0.51,0.056,1.018,0.029,1.526c-0.046,0.897-0.016,1.793-0.028,2.69c0,0.015-0.005,0.029-0.01,0.071
				C15.434,18.267,14.804,18.074,14.165,17.94z"/>
			<path fill="#FFFFFF" d="M13.137,13.915c-0.836,0.366-1.697,0.69-2.537,1.093c-0.071-0.13-0.084-0.272-0.117-0.405
				c-0.071-0.268-0.128-0.54-0.209-0.804c-0.051-0.169-0.013-0.322,0.04-0.474c0.12-0.354,0.332-0.656,0.56-0.947
				c0.043-0.053,0.095-0.09,0.175-0.11c0.362-0.09,0.725-0.167,1.092-0.238c0.11-0.022,0.215-0.01,0.302,0.095
				c0.145,0.173,0.339,0.303,0.438,0.513c0.112,0.236,0.14,0.493,0.187,0.745C13.096,13.551,13.133,13.719,13.137,13.915z"/>
		</g>
	</g>
	<polygon fill="#FFFFFF" points="24.627,12.5 24.627,7.542 19.916,8.667 17.792,5.667 14.802,7.591 10.249,5.333 8.806,9.75 
		4.168,10.667 6.083,13.695 1.5,9.833 8,8.833 8.416,2 14.802,5.917 18.893,1.667 20.409,7.5 26.666,4.583 26.073,11.807 
		30.833,13.515 26.916,16 28.751,13.695 	"/>
</g>
</svg>
